IGES geometry exported by hmdecoder                                     S      1
1H,,1H;,4H    ,,8HHMDECODE,32,38,64,6,99,2,2Hmm,1.0,1.0,15H20260101.0000G      2
00,1.0E-06,1.0E+07,8Hhmdecode,8Hhmdecode,8H2019.0.0,1.0E-06,8Hhmdecode,1G      3
,1,15H20260101.000000,15H20260101.000000;                               G      4
     116       1       0       0       1       0       0       0       0D      5
     116       1       1       1       0       0       0     116       0D      6
     116       2       0       0       1       0       0       0       0D      7
     116       1       1       1       0       0       0     116       0D      8
     116       3       0       0       1       0       0       0       0D      9
     116       1       1       1       0       0       0     116       0D     10
     116       4       0       0       1       0       0       0       0D     11
     116       1       1       1       0       0       0     116       0D     12
     110       5       0       0       1       0       0       0       0D     13
     110       1       1       1       0       0       0     110       0D     14
     110       6       0       0       1       0       0       0       0D     15
     110       1       1       1       0       0       0     110       0D     16
     110       7       0       0       1       0       0       0       0D     17
     110       1       1       1       0       0       0     110       0D     18
     110       8       0       0       1       0       0       0       0D     19
     110       1       1       1       0       0       0     110       0D     20
     110       9       0       0       1       0       0       0       0D     21
     110       1       1       1       0       0       0     110       0D     22
     110      10       0       0       1       0       0       0       0D     23
     110       1       1       1       0       0       0     110       0D     24
     110      11       0       0       1       0       0       0       0D     25
     110       1       1       1       0       0       0     110       0D     26
     110      12       0       0       1       0       0       0       0D     27
     110       1       1       1       0       0       0     110       0D     28
5.0,-5.0,0.0;                                                           P     29
5.0,5.0,0.0;                                                            P     30
-5.0,5.0,0.0;                                                           P     31
-5.0,-5.0,0.0;                                                          P     32
5.0,-5.0,0.0,5.0,5.0,0.0;                                               P     33
5.0,5.0,0.0,-5.0,5.0,0.0;                                               P     34
-5.0,5.0,0.0,-5.0,-5.0,0.0;                                             P     35
-5.0,-5.0,0.0,5.0,-5.0,0.0;                                             P     36
5.0,-5.0,0.0,5.0,5.0,0.0;                                               P     37
5.0,5.0,0.0,-5.0,5.0,0.0;                                               P     38
-5.0,5.0,0.0,-5.0,-5.0,0.0;                                             P     39
-5.0,-5.0,0.0,5.0,-5.0,0.0;                                             P     40
S      1G      2D     28P     40      T      1                          T     41