IGES geometry exported by hmdecoder                                     S      1
1H,,1H;,4H    ,,8HHMDECODE,32,38,64,6,99,2,2Hmm,1.0,1.0,15H20260101.0000G      2
00,1.0E-06,1.0E+07,8Hhmdecode,8Hhmdecode,8H2019.0.0,1.0E-06,8Hhmdecode,1G      3
,1,15H20260101.000000,15H20260101.000000;                               G      4
     116       1       0       0       1       0       0       0       0D      5
     116       1       1       1       0       0       0     116       0D      6
     116       2       0       0       1       0       0       0       0D      7
     116       1       1       1       0       0       0     116       0D      8
     116       3       0       0       1       0       0       0       0D      9
     116       1       1       1       0       0       0     116       0D     10
     116       4       0       0       1       0       0       0       0D     11
     116       1       1       1       0       0       0     116       0D     12
     116       5       0       0       1       0       0       0       0D     13
     116       1       1       1       0       0       0     116       0D     14
     116       6       0       0       1       0       0       0       0D     15
     116       1       1       1       0       0       0     116       0D     16
     116       7       0       0       1       0       0       0       0D     17
     116       1       1       1       0       0       0     116       0D     18
     116       8       0       0       1       0       0       0       0D     19
     116       1       1       1       0       0       0     116       0D     20
     116       9       0       0       1       0       0       0       0D     21
     116       1       1       1       0       0       0     116       0D     22
     116      10       0       0       1       0       0       0       0D     23
     116       1       1       1       0       0       0     116       0D     24
     116      11       0       0       1       0       0       0       0D     25
     116       1       1       1       0       0       0     116       0D     26
     116      12       0       0       1       0       0       0       0D     27
     116       1       1       1       0       0       0     116       0D     28
     116      13       0       0       1       0       0       0       0D     29
     116       1       1       1       0       0       0     116       0D     30
     116      14       0       0       1       0       0       0       0D     31
     116       1       1       1       0       0       0     116       0D     32
     116      15       0       0       1       0       0       0       0D     33
     116       1       1       1       0       0       0     116       0D     34
     116      16       0       0       1       0       0       0       0D     35
     116       1       1       1       0       0       0     116       0D     36
     116      17       0       0       1       0       0       0       0D     37
     116       1       1       1       0       0       0     116       0D     38
     116      18       0       0       1       0       0       0       0D     39
     116       1       1       1       0       0       0     116       0D     40
     116      19       0       0       1       0       0       0       0D     41
     116       1       1       1       0       0       0     116       0D     42
     116      20       0       0       1       0       0       0       0D     43
     116       1       1       1       0       0       0     116       0D     44
     116      21       0       0       1       0       0       0       0D     45
     116       1       1       1       0       0       0     116       0D     46
     116      22       0       0       1       0       0       0       0D     47
     116       1       1       1       0       0       0     116       0D     48
     116      23       0       0       1       0       0       0       0D     49
     116       1       1       1       0       0       0     116       0D     50
     116      24       0       0       1       0       0       0       0D     51
     116       1       1       1       0       0       0     116       0D     52
     116      25       0       0       1       0       0       0       0D     53
     116       1       1       1       0       0       0     116       0D     54
     116      26       0       0       1       0       0       0       0D     55
     116       1       1       1       0       0       0     116       0D     56
     116      27       0       0       1       0       0       0       0D     57
     116       1       1       1       0       0       0     116       0D     58
     116      28       0       0       1       0       0       0       0D     59
     116       1       1       1       0       0       0     116       0D     60
     116      29       0       0       1       0       0       0       0D     61
     116       1       1       1       0       0       0     116       0D     62
     116      30       0       0       1       0       0       0       0D     63
     116       1       1       1       0       0       0     116       0D     64
     116      31       0       0       1       0       0       0       0D     65
     116       1       1       1       0       0       0     116       0D     66
     116      32       0       0       1       0       0       0       0D     67
     116       1       1       1       0       0       0     116       0D     68
     116      33       0       0       1       0       0       0       0D     69
     116       1       1       1       0       0       0     116       0D     70
     116      34       0       0       1       0       0       0       0D     71
     116       1       1       1       0       0       0     116       0D     72
     116      35       0       0       1       0       0       0       0D     73
     116       1       1       1       0       0       0     116       0D     74
     116      36       0       0       1       0       0       0       0D     75
     116       1       1       1       0       0       0     116       0D     76
     116      37       0       0       1       0       0       0       0D     77
     116       1       1       1       0       0       0     116       0D     78
     116      38       0       0       1       0       0       0       0D     79
     116       1       1       1       0       0       0     116       0D     80
     116      39       0       0       1       0       0       0       0D     81
     116       1       1       1       0       0       0     116       0D     82
     116      40       0       0       1       0       0       0       0D     83
     116       1       1       1       0       0       0     116       0D     84
     116      41       0       0       1       0       0       0       0D     85
     116       1       1       1       0       0       0     116       0D     86
     116      42       0       0       1       0       0       0       0D     87
     116       1       1       1       0       0       0     116       0D     88
     116      43       0       0       1       0       0       0       0D     89
     116       1       1       1       0       0       0     116       0D     90
     116      44       0       0       1       0       0       0       0D     91
     116       1       1       1       0       0       0     116       0D     92
     116      45       0       0       1       0       0       0       0D     93
     116       1       1       1       0       0       0     116       0D     94
     116      46       0       0       1       0       0       0       0D     95
     116       1       1       1       0       0       0     116       0D     96
     116      47       0       0       1       0       0       0       0D     97
     116       1       1       1       0       0       0     116       0D     98
     116      48       0       0       1       0       0       0       0D     99
     116       1       1       1       0       0       0     116       0D    100
     116      49       0       0       1       0       0       0       0D    101
     116       1       1       1       0       0       0     116       0D    102
     116      50       0       0       1       0       0       0       0D    103
     116       1       1       1       0       0       0     116       0D    104
     116      51       0       0       1       0       0       0       0D    105
     116       1       1       1       0       0       0     116       0D    106
     116      52       0       0       1       0       0       0       0D    107
     116       1       1       1       0       0       0     116       0D    108
     116      53       0       0       1       0       0       0       0D    109
     116       1       1       1       0       0       0     116       0D    110
     116      54       0       0       1       0       0       0       0D    111
     116       1       1       1       0       0       0     116       0D    112
     116      55       0       0       1       0       0       0       0D    113
     116       1       1       1       0       0       0     116       0D    114
     116      56       0       0       1       0       0       0       0D    115
     116       1       1       1       0       0       0     116       0D    116
     116      57       0       0       1       0       0       0       0D    117
     116       1       1       1       0       0       0     116       0D    118
     116      58       0       0       1       0       0       0       0D    119
     116       1       1       1       0       0       0     116       0D    120
     116      59       0       0       1       0       0       0       0D    121
     116       1       1       1       0       0       0     116       0D    122
     116      60       0       0       1       0       0       0       0D    123
     116       1       1       1       0       0       0     116       0D    124
     116      61       0       0       1       0       0       0       0D    125
     116       1       1       1       0       0       0     116       0D    126
     116      62       0       0       1       0       0       0       0D    127
     116       1       1       1       0       0       0     116       0D    128
     116      63       0       0       1       0       0       0       0D    129
     116       1       1       1       0       0       0     116       0D    130
     116      64       0       0       1       0       0       0       0D    131
     116       1       1       1       0       0       0     116       0D    132
     116      65       0       0       1       0       0       0       0D    133
     116       1       1       1       0       0       0     116       0D    134
     116      66       0       0       1       0       0       0       0D    135
     116       1       1       1       0       0       0     116       0D    136
     116      67       0       0       1       0       0       0       0D    137
     116       1       1       1       0       0       0     116       0D    138
     116      68       0       0       1       0       0       0       0D    139
     116       1       1       1       0       0       0     116       0D    140
     116      69       0       0       1       0       0       0       0D    141
     116       1       1       1       0       0       0     116       0D    142
     116      70       0       0       1       0       0       0       0D    143
     116       1       1       1       0       0       0     116       0D    144
     116      71       0       0       1       0       0       0       0D    145
     116       1       1       1       0       0       0     116       0D    146
     116      72       0       0       1       0       0       0       0D    147
     116       1       1       1       0       0       0     116       0D    148
     116      73       0       0       1       0       0       0       0D    149
     116       1       1       1       0       0       0     116       0D    150
     116      74       0       0       1       0       0       0       0D    151
     116       1       1       1       0       0       0     116       0D    152
     116      75       0       0       1       0       0       0       0D    153
     116       1       1       1       0       0       0     116       0D    154
     116      76       0       0       1       0       0       0       0D    155
     116       1       1       1       0       0       0     116       0D    156
     116      77       0       0       1       0       0       0       0D    157
     116       1       1       1       0       0       0     116       0D    158
     116      78       0       0       1       0       0       0       0D    159
     116       1       1       1       0       0       0     116       0D    160
     116      79       0       0       1       0       0       0       0D    161
     116       1       1       1       0       0       0     116       0D    162
     116      80       0       0       1       0       0       0       0D    163
     116       1       1       1       0       0       0     116       0D    164
     116      81       0       0       1       0       0       0       0D    165
     116       1       1       1       0       0       0     116       0D    166
     116      82       0       0       1       0       0       0       0D    167
     116       1       1       1       0       0       0     116       0D    168
     116      83       0       0       1       0       0       0       0D    169
     116       1       1       1       0       0       0     116       0D    170
     116      84       0       0       1       0       0       0       0D    171
     116       1       1       1       0       0       0     116       0D    172
     116      85       0       0       1       0       0       0       0D    173
     116       1       1       1       0       0       0     116       0D    174
     116      86       0       0       1       0       0       0       0D    175
     116       1       1       1       0       0       0     116       0D    176
     116      87       0       0       1       0       0       0       0D    177
     116       1       1       1       0       0       0     116       0D    178
     116      88       0       0       1       0       0       0       0D    179
     116       1       1       1       0       0       0     116       0D    180
     116      89       0       0       1       0       0       0       0D    181
     116       1       1       1       0       0       0     116       0D    182
     116      90       0       0       1       0       0       0       0D    183
     116       1       1       1       0       0       0     116       0D    184
     116      91       0       0       1       0       0       0       0D    185
     116       1       1       1       0       0       0     116       0D    186
     116      92       0       0       1       0       0       0       0D    187
     116       1       1       1       0       0       0     116       0D    188
     116      93       0       0       1       0       0       0       0D    189
     116       1       1       1       0       0       0     116       0D    190
     116      94       0       0       1       0       0       0       0D    191
     116       1       1       1       0       0       0     116       0D    192
     116      95       0       0       1       0       0       0       0D    193
     116       1       1       1       0       0       0     116       0D    194
     116      96       0       0       1       0       0       0       0D    195
     116       1       1       1       0       0       0     116       0D    196
     116      97       0       0       1       0       0       0       0D    197
     116       1       1       1       0       0       0     116       0D    198
     116      98       0       0       1       0       0       0       0D    199
     116       1       1       1       0       0       0     116       0D    200
     116      99       0       0       1       0       0       0       0D    201
     116       1       1       1       0       0       0     116       0D    202
     116     100       0       0       1       0       0       0       0D    203
     116       1       1       1       0       0       0     116       0D    204
     116     101       0       0       1       0       0       0       0D    205
     116       1       1       1       0       0       0     116       0D    206
     116     102       0       0       1       0       0       0       0D    207
     116       1       1       1       0       0       0     116       0D    208
     116     103       0       0       1       0       0       0       0D    209
     116       1       1       1       0       0       0     116       0D    210
     116     104       0       0       1       0       0       0       0D    211
     116       1       1       1       0       0       0     116       0D    212
     116     105       0       0       1       0       0       0       0D    213
     116       1       1       1       0       0       0     116       0D    214
     116     106       0       0       1       0       0       0       0D    215
     116       1       1       1       0       0       0     116       0D    216
     116     107       0       0       1       0       0       0       0D    217
     116       1       1       1       0       0       0     116       0D    218
     116     108       0       0       1       0       0       0       0D    219
     116       1       1       1       0       0       0     116       0D    220
     116     109       0       0       1       0       0       0       0D    221
     116       1       1       1       0       0       0     116       0D    222
     116     110       0       0       1       0       0       0       0D    223
     116       1       1       1       0       0       0     116       0D    224
     116     111       0       0       1       0       0       0       0D    225
     116       1       1       1       0       0       0     116       0D    226
     116     112       0       0       1       0       0       0       0D    227
     116       1       1       1       0       0       0     116       0D    228
     116     113       0       0       1       0       0       0       0D    229
     116       1       1       1       0       0       0     116       0D    230
     116     114       0       0       1       0       0       0       0D    231
     116       1       1       1       0       0       0     116       0D    232
     116     115       0       0       1       0       0       0       0D    233
     116       1       1       1       0       0       0     116       0D    234
     116     116       0       0       1       0       0       0       0D    235
     116       1       1       1       0       0       0     116       0D    236
     116     117       0       0       1       0       0       0       0D    237
     116       1       1       1       0       0       0     116       0D    238
     116     118       0       0       1       0       0       0       0D    239
     116       1       1       1       0       0       0     116       0D    240
     116     119       0       0       1       0       0       0       0D    241
     116       1       1       1       0       0       0     116       0D    242
     116     120       0       0       1       0       0       0       0D    243
     116       1       1       1       0       0       0     116       0D    244
     116     121       0       0       1       0       0       0       0D    245
     116       1       1       1       0       0       0     116       0D    246
     116     122       0       0       1       0       0       0       0D    247
     116       1       1       1       0       0       0     116       0D    248
     116     123       0       0       1       0       0       0       0D    249
     116       1       1       1       0       0       0     116       0D    250
     116     124       0       0       1       0       0       0       0D    251
     116       1       1       1       0       0       0     116       0D    252
     116     125       0       0       1       0       0       0       0D    253
     116       1       1       1       0       0       0     116       0D    254
     116     126       0       0       1       0       0       0       0D    255
     116       1       1       1       0       0       0     116       0D    256
     116     127       0       0       1       0       0       0       0D    257
     116       1       1       1       0       0       0     116       0D    258
     116     128       0       0       1       0       0       0       0D    259
     116       1       1       1       0       0       0     116       0D    260
     116     129       0       0       1       0       0       0       0D    261
     116       1       1       1       0       0       0     116       0D    262
     116     130       0       0       1       0       0       0       0D    263
     116       1       1       1       0       0       0     116       0D    264
     116     131       0       0       1       0       0       0       0D    265
     116       1       1       1       0       0       0     116       0D    266
     116     132       0       0       1       0       0       0       0D    267
     116       1       1       1       0       0       0     116       0D    268
     116     133       0       0       1       0       0       0       0D    269
     116       1       1       1       0       0       0     116       0D    270
     116     134       0       0       1       0       0       0       0D    271
     116       1       1       1       0       0       0     116       0D    272
     116     135       0       0       1       0       0       0       0D    273
     116       1       1       1       0       0       0     116       0D    274
     116     136       0       0       1       0       0       0       0D    275
     116       1       1       1       0       0       0     116       0D    276
     116     137       0       0       1       0       0       0       0D    277
     116       1       1       1       0       0       0     116       0D    278
1744.9663078937897,-159.56691745747798,-900.0;                          P    279
1776.5,33.0,-835.0;                                                     P    280
1792.5,32.999999999879435,-835.0;                                       P    281
1852.0375428675502,-127.54849474356753,-834.9999727837783;              P    282
1852.0375428675502,-125.51106135365715,-915.9999727837783;              P    283
1722.12709945272,-250.59732892591,-835.0;                               P    284
1722.127099452719,-252.63476231581484,-916.0;                           P    285
1918.6270398433817,-214.43904315713138,-915.9999999999998;              P    286
1888.8563036632977,-134.65368568283827,-899.9999999999999;              P    287
1888.8563036632715,-134.65368568285555,-886.0;                          P    288
1888.2838766771704,-131.70880413250578,-886.0;                          P    289
1744.9663078937897,-159.56691745747798,-886.0;                          P    290
1745.53873487992,-162.51179900782,-886.0;                               P    291
1776.5,-76.41361196719191,-835.0;                                       P    292
1752.5,-2.539023811800007,-916.0;                                       P    293
1752.5,-2.539023811800007,-900.0;                                       P    294
1752.5,-72.5390238118,-900.0;                                           P    295
1752.5,-72.5390238118,-916.0;                                           P    296
1902.5990842315734,-131.98235974756574,-916.0;                          P    297
1735.5271211489126,-236.78674492163952,-906.0;                          P    298
1888.283876677144,-131.70880413252297,-906.0000000000007;               P    299
1744.9663078937913,-159.56691745747764,-905.9999999999992;              P    300
1721.4072554910535,-164.14633334652805,-906.0000000000001;              P    301
1734.9546941627812,-233.84186337130603,-893.9999999999999;              P    302
1735.527121148917,-236.78674492163861,-886.0000000000028;               P    303
1735.5271211489148,-236.7867449216395,-894.0000000000014;               P    304
1902.4037423350023,-204.34921570763817,-906.0000000000005;              P    305
1902.4037423350023,-204.34921570763817,-899.9999999999975;              P    306
1902.403742335002,-204.3492157076383,-886.0000000000015;                P    307
1734.9546941627746,-233.8418633712713,-899.9999999999993;               P    308
1721.407255491049,-164.14633334651438,-900.0;                           P    309
1901.8313153488928,-201.40433415730053,-886.0000000000023;              P    310
1901.831315348902,-201.40433415729873,-899.9999999999999;               P    311
1734.9546941627927,-233.84186337132311,-886.0000000000002;              P    312
1719.0808995377272,-236.92741647771183,-835.0;                          P    313
1806.2435651926198,-134.41250820620817,-834.9999999999932;              P    314
1806.2428742213654,-134.41264251490742,-900.0;                          P    315
1776.5,113.0,-916.0;                                                    P    316
1776.5,113.0,-900.0;                                                    P    317
1776.4999999999907,-76.41361196718199,-900.00000000001;                 P    318
1776.5,163.8754927031479,-851.0;                                        P    319
1776.5,183.0,-851.0;                                                    P    320
1792.5,183.0,-851.0;                                                    P    321
1792.5,183.00000000000665,-783.522306203441;                            P    322
1776.5,183.0,-916.0000000000001;                                        P    323
1792.5,183.0,-916.0000000000001;                                        P    324
1776.5,163.87549270312414,-916.0;                                       P    325
1792.5,163.87574311523656,-916.0000000000001;                           P    326
1776.5000000147709,163.87549270314273,-783.5223062331372;               P    327
1792.5,163.87549270312434,-783.5223062033905;                           P    328
1776.4999999999786,182.99999999999676,-783.5223062331372;               P    329
1899.6403669698993,-116.76107897707624,-916.0;                          P    330
1902.5990842315734,-131.98235974756574,-899.9999999999999;              P    331
1888.8563036632308,-134.6536856828513,-835.0;                           P    332
1899.8871413771903,-118.03062324496341,-843.621109402299;               P    333
1901.831329176789,-201.4044105639646,-834.9999999917428;                P    334
1904.5026402973897,-215.14711491736665,-835.0000000000001;              P    335
1904.8837520902166,-217.1104676791646,-916.0000000000001;               P    336
1885.803113083396,-118.94769869233524,-916.0;                           P    337
1665.045305837231,-233.8418633712713,-899.9999999999993;                P    338
1678.5927445089565,-164.14633334651438,-900.0;                          P    339
1497.5962576650031,-204.34921570763817,-906.0000000000005;              P    340
1511.7161233228614,-131.70880413252297,-906.0000000000007;              P    341
1655.0336921062142,-159.56691745747764,-905.9999999999992;              P    342
1547.9624571324553,-127.54849474356753,-834.9999727837783;              P    343
1547.9624571324553,-125.51106135365715,-915.9999727837783;              P    344
1498.1686846511338,-201.40433415729015,-900.0;                          P    345
1511.143696336734,-134.65368568285555,-900.0;                           P    346
1497.400915768432,-131.98235974756574,-899.9999999999999;               P    347
1511.143696336734,-134.65368568285555,-886.0;                           P    348
1511.716123322835,-131.70880413250578,-886.0;                           P    349
1664.4728788510913,-236.7867449216392,-894.0000000000011;               P    350
1664.4728788510963,-236.78674492164072,-906.0;                          P    351
1678.592744508954,-164.14633334652856,-906.0;                           P    352
1647.5000000000055,-2.539023811800007,-916.0;                           P    353
1647.5000000000055,-2.539023811800007,-900.0;                           P    354
1647.5000000000055,-72.5390238118,-900.0;                               P    355
1647.5000000000055,-72.5390238118,-916.0;                               P    356
1623.5000000000055,113.0,-916.0;                                        P    357
1497.400915768432,-131.98235974756574,-843.97204438837;                 P    358
1500.112858622815,-118.03062324496341,-843.621109402299;                P    359
1497.400915768432,-131.98235974756574,-916.0;                           P    360
1481.3729601566238,-214.43904315713138,-915.9999999999998;              P    361
1514.1968869166094,-118.94769869233524,-916.0;                          P    362
-899.9999999999993,3.0630588531506056,3.26496286e-316;                  P    363
1665.0453058372166,-233.84186337130453,-886.0;                          P    364
1623.5000000000055,113.0,-900.0;                                        P    365
1498.1686846511127,-201.40433415730053,-886.0000000000023;              P    366
1497.5962576650297,-204.34921570764126,-886.0000000000014;              P    367
1497.5962576650031,-204.34921570763817,-899.9999999999975;              P    368
1664.4728788510884,-236.78674492163867,-886.000000000003;               P    369
1655.0336921062158,-159.56691745747798,-900.0;                          P    370
1593.7564348073483,-134.4125082062009,-834.9999999999998;               P    371
1657.5142090462589,-146.8057640718887,-899.9999999999999;               P    372
1593.7571257786406,-134.41264251490742,-900.0;                          P    373
1623.5000000000148,-76.41361196718199,-900.00000000001;                 P    374
1680.919100462356,-236.92741647772738,-835.0000000000001;               P    375
1623.4999999950908,163.87549270314273,-851.0000000059855;               P    376
1607.5000000000055,183.0,-851.0;                                        P    377
1623.5000000000055,183.0,-851.0;                                        P    378
1623.5000000000055,163.87549270312414,-916.0;                           P    379
1607.5000000000055,163.87574311523656,-916.0000000000001;               P    380
1607.5000000000055,183.0,-916.0;                                        P    381
1623.5000000000055,183.0,-916.0000000000001;                            P    382
1623.5000000000268,182.99999999999676,-783.5223062331372;               P    383
1607.5000000000055,182.99999999999676,-783.522306203441;                P    384
1607.5000000000055,163.87549270312434,-783.5223062033905;               P    385
1623.4999999852346,163.87549270314273,-783.5223062331372;               P    386
1484.4259040826832,-198.73300822197146,-899.9999999999976;              P    387
1481.4483414881306,-214.05123982540334,-899.9999999999973;              P    388
1623.5000000000055,33.0,-835.0;                                         P    389
1607.5000000000055,32.999999999879435,-835.0;                           P    390
1495.4973597026158,-215.14711491736665,-835.0000000000001;              P    391
1498.1686856239592,-201.40433434639505,-835.0;                          P    392
1511.1436963367746,-134.6536856828513,-835.0;                           P    393
1677.8729005472856,-250.59732892591,-835.0;                             P    394
1677.8729005472849,-252.63476231582325,-916.0;                          P    395
1495.1162479097898,-217.1104676791603,-916.0;                           P    396
1501.005503825806,-218.25522306470666,-916.0;                           P    397
1520.0864033634537,-120.09250471994936,-916.0;                          P    398
1629.517976694125,-141.3638477733922,-858.9999999999998;                P    399
1531.0867123555065,-123.66449760495979,-858.9999999999998;              P    400
1626.4650327637285,-157.0698827076913,-858.9999999999998;               P    401
1528.3023144189856,-137.98898317004657,-858.9999999999998;              P    402
1868.960400976758,-123.90687468727947,-848.9999999999998;               P    403
1773.534967236277,-157.06988270769133,-849.0000000000001;               P    404
1770.4820233058804,-141.36384777339217,-849.0000000000001;              P    405
1871.6976855813068,-137.9889831699908,-848.9999999999998;               P    406
1745.538734879918,-162.51179900781034,-835.0;                           P    407
1742.4857909538969,-146.80576407266062,-835.0;                          P    408
1742.4857909537466,-146.8057640718887,-899.9999999999999;               P    409
1623.5000000000055,-76.41361196719191,-835.0;                           P    410
1513.8152689258563,-120.91095305923078,-834.9999999999999;              P    411
1654.4612651200873,-162.51179900781028,-835.0;                          P    412
1657.5142090461088,-146.80576407266054,-835.0;                          P    413
1655.0336921062144,-159.5669174574798,-885.9999999999999;               P    414
1654.4612651200855,-162.51179900782,-886.0;                             P    415
S      1G      2D    278P    415      T      1                          T    416