ISO-10303-21;
HEADER;
FILE_DESCRIPTION(('HyperMesh Geometry Export'),'2;1');
FILE_NAME('geometry.step','2026-01-01T00:00:00',('HyperMesh Export'),(''),'hm_parser.py','HyperMesh','');
FILE_SCHEMA(('AUTOMOTIVE_DESIGN')); 
ENDSEC;

DATA;
#1 = APPLICATION_CONTEXT('automotive_design');
#2 = APPLICATION_PROTOCOL_DEFINITION('international standard','automotive_design',2000,#1);
#3 = UNCERTAINTY_MEASURE_WITH_UNIT(LENGTH_MEASURE(1.E-06),#4,'distance_accuracy_value','Maximum model space deviation');
#4 = ( LENGTH_UNIT() NAMED_UNIT(*) SI_UNIT(.MILLI.,.METRE.) );
#5 = ( NAMED_UNIT(*) PLANE_ANGLE_UNIT() SI_UNIT($,.RADIAN.) );
#6 = ( NAMED_UNIT(*) SI_UNIT($,.STERADIAN.) SOLID_ANGLE_UNIT() );
#7 = (NAMED_UNIT(#5) NAMED_UNIT(#6)NAMED_UNIT(#4) REPRESENTATION_CONTEXT(#1,'design') REPRESENTATION_CONTEXT(#1,'design') REPRESENTATION_CONTEXT(#1,'design'));
#8 = CARTESIAN_POINT('',(9.31150111e-01,1.00000000e+00,1.00000000e+00));
#9 = CARTESIAN_POINT('',(4.66842177e-305,4.65068250e-305,0.00000000e+00));
#10 = CARTESIAN_POINT('',(-2.84008503e+01,0.00000000e+00,0.00000000e+00));
#11 = CARTESIAN_POINT('',(2.66734871e-311,6.63448814e-316,-9.63967946e-181));
#12 = CARTESIAN_POINT('',(0.00000000e+00,5.33190459e-315,5.34269088e-315));
#13 = CARTESIAN_POINT('',(5.22010965e-312,6.63448819e-316,-1.79054837e-165));
#14 = CARTESIAN_POINT('',(1.19256163e-311,1.25197752e-311,9.94707068e-316));
#15 = CARTESIAN_POINT('',(5.38787994e-315,0.00000000e+00,1.42173718e-311));
#16 = CARTESIAN_POINT('',(-8.35000000e+02,3.06305885e+00,3.31474571e-316));
#17 = CARTESIAN_POINT('',(1.48219694e-323,3.05175781e-05,7.81250183e-03));
#18 = CARTESIAN_POINT('',(1.48219694e-323,3.05175781e-05,7.81250183e-03));
#19 = CARTESIAN_POINT('',(1.60000000e+01,1.31139340e-311,1.01024903e-315));
#20 = CARTESIAN_POINT('',(-9.16000000e+02,3.06305885e+00,3.17112675e-316));
#21 = CARTESIAN_POINT('',(0.00000000e+00,3.84492854e+01,9.25000000e+01));
#22 = CARTESIAN_POINT('',(-9.16000000e+02,8.50495913e-311,1.00797159e-289));
#23 = CARTESIAN_POINT('',(-8.51000000e+02,2.78830247e-311,4.09977767e-290));
#24 = CARTESIAN_POINT('',(-8.51000000e+02,8.60044894e-311,1.11181273e-289));
#25 = CARTESIAN_POINT('',(2.12199659e-314,-1.60000000e+01,9.25000000e+01));
#26 = CARTESIAN_POINT('',(-8.51000000e+02,3.06305885e+00,3.19410831e-316));
#27 = CARTESIAN_POINT('',(2.12199706e-314,4.24857910e+01,4.34882010e+01));
#28 = CARTESIAN_POINT('',(7.65000000e+01,3.27000000e+02,9.88131292e-324));
#29 = CARTESIAN_POINT('',(0.00000000e+00,7.65000000e+01,3.19000000e+02));
#30 = CARTESIAN_POINT('',(0.00000000e+00,0.00000000e+00,3.89000000e+02));
#31 = CARTESIAN_POINT('',(0.00000000e+00,6.36598737e-314,-7.19709126e-162));
#32 = CARTESIAN_POINT('',(5.41896386e-315,0.00000000e+00,1.02280197e-311));
#33 = CARTESIAN_POINT('',(-2.06000000e+02,-9.00000000e+02,0.00000000e+00));
#34 = CARTESIAN_POINT('',(-1.36753268e-127,1.36506002e-312,3.63278068e-142));
#35 = CARTESIAN_POINT('',(5.51286321e-315,2.44029516e-312,4.08800290e-289));
#36 = CARTESIAN_POINT('',(5.51674870e-315,4.49863108e-312,3.67314005e-289));
#37 = CARTESIAN_POINT('',(3.10450428e-278,-6.05650335e-135,4.08577770e-312));
#38 = CARTESIAN_POINT('',(5.49521725e-315,3.09599186e-311,4.01034138e-289));
#39 = CARTESIAN_POINT('',(7.29112338e-304,1.89091404e-124,4.77830989e-299));
#40 = CARTESIAN_POINT('',(1.06561646e-255,1.88274989e-183,5.64717033e-321));
#41 = CARTESIAN_POINT('',(1.72725157e-77,3.69774345e-313,2.68348748e-311));
#42 = CARTESIAN_POINT('',(5.41896386e-315,1.43871315e-311,1.64310521e-290));
#43 = CARTESIAN_POINT('',(5.41896386e-315,1.39067116e-309,6.56200982e-303));
#44 = CARTESIAN_POINT('',(5.41896386e-315,1.10768180e-311,8.49266465e-290));
#45 = CARTESIAN_POINT('',(1.94697580e-308,5.00000000e+00,1.88857625e-312));
#46 = CARTESIAN_POINT('',(1.36721984e-312,4.08147965e-312,3.74114996e-106));
#47 = CARTESIAN_POINT('',(5.43741867e-315,4.24399158e-314,3.07052791e-311));
#48 = VERTEX_POINT('',#8);
#49 = VERTEX_POINT('',#9);
#50 = VERTEX_POINT('',#10);
#51 = VERTEX_POINT('',#11);
#52 = VERTEX_POINT('',#12);
#53 = VERTEX_POINT('',#13);
#54 = VERTEX_POINT('',#14);
#55 = VERTEX_POINT('',#15);
#56 = VERTEX_POINT('',#16);
#57 = VERTEX_POINT('',#17);
#58 = VERTEX_POINT('',#18);
#59 = VERTEX_POINT('',#19);
#60 = VERTEX_POINT('',#20);
#61 = VERTEX_POINT('',#21);
#62 = VERTEX_POINT('',#22);
#63 = VERTEX_POINT('',#23);
#64 = VERTEX_POINT('',#24);
#65 = VERTEX_POINT('',#25);
#66 = VERTEX_POINT('',#26);
#67 = VERTEX_POINT('',#27);
#68 = VERTEX_POINT('',#28);
#69 = VERTEX_POINT('',#29);
#70 = VERTEX_POINT('',#30);
#71 = VERTEX_POINT('',#31);
#72 = VERTEX_POINT('',#32);
#73 = VERTEX_POINT('',#33);
#74 = VERTEX_POINT('',#34);
#75 = VERTEX_POINT('',#35);
#76 = VERTEX_POINT('',#36);
#77 = VERTEX_POINT('',#37);
#78 = VERTEX_POINT('',#38);
#79 = VERTEX_POINT('',#39);
#80 = VERTEX_POINT('',#40);
#81 = VERTEX_POINT('',#41);
#82 = VERTEX_POINT('',#42);
#83 = VERTEX_POINT('',#43);
#84 = VERTEX_POINT('',#44);
#85 = VERTEX_POINT('',#45);
#86 = VERTEX_POINT('',#46);
#87 = VERTEX_POINT('',#47);
ENDSEC;
END-ISO-10303-21;
