ISO-10303-21;
HEADER;
FILE_DESCRIPTION(('HyperMesh Model Geometry - STEP AP214 Export'),'2;1');
FILE_NAME('geometry.step','2026-03-22T00:00:00',('hmdecoding project'),('D:/training/caedecoder/hmdecoding'),'hm_parser.py','HyperMesh .hm Decoder','');
FILE_SCHEMA(('AUTOMOTIVE_DESIGN'));
ENDSEC;

DATA;
#1 = APPLICATION_CONTEXT('core_data_for_automotive_design');
#2 = APPLICATION_PROTOCOL_DEFINITION('international standard','automotive_design',2000,#1);
#3 = DESIGN_CONTEXT('',#1,'design');
#4 = (LENGTH_UNIT() NAMED_UNIT(*) SI_UNIT(.MILLI.,.METRE.));
#5 = (NAMED_UNIT(*) PLANE_ANGLE_UNIT() SI_UNIT($,.RADIAN.));
#6 = (NAMED_UNIT(*) SI_UNIT($,.STERADIAN.) SOLID_ANGLE_UNIT());
#7 = UNCERTAINTY_MEASURE_WITH_UNIT(LENGTH_MEASURE(1.E-07),#4,'uncertainty_for_model','Maximum model-space deviation');
#8 = (GEOMETRIC_REPRESENTATION_CONTEXT(3) GLOBAL_UNCERTAINTY_ASSIGNED_CONTEXT((#7)) GLOBAL_UNIT_ASSIGNED_CONTEXT((#4,#5,#6)) REPRESENTATION_CONTEXT('',''));
#9 = ('WS_3.2_3d_tetra_finish','HyperMesh Model','Tetrahedral Mesh','3D Model') ADVANCED_BREP_SHAPE_REPRESENTATION('',(#10),#8);

CARTESIAN POINTS (from extracted node data):
#10 = AXIS2_PLACEMENT_3D('',#11,#12,#13);
#11 = CARTESIAN_POINT('',(0.000000000E+00,0.000000000E+00,0.000000000E+00));
#12 = DIRECTION('',(0.000000000E+00,0.000000000E+00,1.000000000E+00));
#13 = DIRECTION('',(1.000000000E+00,0.000000000E+00,0.000000000E+00));

Model Bounding Box (from extracted data):
- Min: (-916.000, -900.000, 0.000)
- Max: (76.500, 327.000, 389.000)
- Size: (992.500, 1227.000, 389.000)

NOTE: This STEP file contains a representative subset of geometry points.
      Full geometry extraction requires Altair HyperMesh.

Representative Geometry Points:
#100 = CARTESIAN_POINT('',(9.311501110E-01,1.000000000E+00,1.000000000E+00));
#101 = CARTESIAN_POINT('',(-2.840085030E+01,0.000000000E+00,0.000000000E+00));
#102 = CARTESIAN_POINT('',(-8.350000000E+02,3.063058850E+00,0.000000000E+00));
#103 = CARTESIAN_POINT('',(-9.160000000E+02,3.063058850E+00,0.000000000E+00));
#104 = CARTESIAN_POINT('',(-8.510000000E+02,0.000000000E+00,0.000000000E+00));
#105 = CARTESIAN_POINT('',(0.000000000E+00,3.844928540E+01,9.250000000E+01));
#106 = CARTESIAN_POINT('',(0.000000000E+00,-1.600000000E+01,9.250000000E+01));
#107 = CARTESIAN_POINT('',(7.650000000E+01,3.270000000E+02,0.000000000E+00));
#108 = CARTESIAN_POINT('',(0.000000000E+00,7.650000000E+01,3.190000000E+02));
#109 = CARTESIAN_POINT('',(0.000000000E+00,0.000000000E+00,3.890000000E+02));
#110 = CARTESIAN_POINT('',(-2.060000000E+02,-9.000000000E+02,0.000000000E+00));
#111 = CARTESIAN_POINT('',(0.000000000E+00,7.650000000E+01,3.190000000E+02));
#112 = CARTESIAN_POINT('',(1.600000000E+01,0.000000000E+00,0.000000000E+00));
#113 = CARTESIAN_POINT('',(0.000000000E+00,0.000000000E+00,3.890000000E+02));
#114 = CARTESIAN_POINT('',(4.248579100E+01,4.348820100E+01,0.000000000E+00));
#115 = CARTESIAN_POINT('',(0.000000000E+00,5.000000000E+00,0.000000000E+00));

Vertex Points:
#200 = VERTEX_POINT('',#100);
#201 = VERTEX_POINT('',#101);
#202 = VERTEX_POINT('',#102);
#203 = VERTEX_POINT('',#103);
#204 = VERTEX_POINT('',#104);
#205 = VERTEX_POINT('',#105);
#206 = VERTEX_POINT('',#106);
#207 = VERTEX_POINT('',#107);
#208 = VERTEX_POINT('',#108);
#209 = VERTEX_POINT('',#109);
#210 = VERTEX_POINT('',#110);
#211 = VERTEX_POINT('',#111);
#212 = VERTEX_POINT('',#112);
#213 = VERTEX_POINT('',#113);
#214 = VERTEX_POINT('',#114);
#215 = VERTEX_POINT('',#115);

ENDSEC;
END-ISO-10303-21;
